<?xml version="1.0" encoding="utf-8" standalone="no"?>
<!DOCTYPE svg PUBLIC "-//W3C//DTD SVG 1.1//EN"
  "http://www.w3.org/Graphics/SVG/1.1/DTD/svg11.dtd">
<svg xmlns:xlink="http://www.w3.org/1999/xlink" width="240.944882pt" height="192.755906pt" viewBox="0 0 240.944882 192.755906" xmlns="http://www.w3.org/2000/svg" version="1.1">
 <metadata>
  <rdf:RDF xmlns:dc="http://purl.org/dc/elements/1.1/" xmlns:cc="http://creativecommons.org/ns#" xmlns:rdf="http://www.w3.org/1999/02/22-rdf-syntax-ns#">
   <cc:Work>
    <dc:type rdf:resource="http://purl.org/dc/dcmitype/StillImage"/>
    <dc:date>2026-09-21T15:51:40.420178</dc:date>
    <dc:format>image/svg+xml</dc:format>
    <dc:creator>
     <cc:Agent>
      <dc:title>Matplotlib v3.9.4, https://matplotlib.org/</dc:title>
     </cc:Agent>
    </dc:creator>
   </cc:Work>
  </rdf:RDF>
 </metadata>
 <defs>
  <style type="text/css">*{stroke-linejoin: round; stroke-linecap: butt}</style>
 </defs>
 <g id="figure_1">
  <g id="patch_1">
   <path d="M 0 192.755906 
L 240.944882 192.755906 
L 240.944882 0 
L 0 0 
z
" style="fill: #ffffff"/>
  </g>
  <g id="axes_1">
   <g id="patch_2">
    <path d="M 35.292813 160.781793 
L 237.704882 160.781793 
L 237.704882 31.974112 
L 35.292813 31.974112 
z
" style="fill: #ffffff"/>
   </g>
   <g id="patch_3">
    <path d="M 44.493361 133.180147 
L 228.504333 133.180147 
L 228.504333 41.174661 
L 44.493361 41.174661 
L 44.493361 133.180147 
z
" clip-path="url(#p5c83d84d2b)" style="fill: none; stroke: #000000; stroke-width: 0.8; stroke-linejoin: miter"/>
   </g>
   <g id="matplotlib.axis_1">
    <g id="xtick_1">
     <g id="line2d_1">
      <defs>
       <path id="m025a008b77" d="M 0 0 
L 0 -3.5 
" style="stroke: #000000; stroke-width: 0.8"/>
      </defs>
      <g>
       <use xlink:href="#m025a008b77" x="44.493361" y="160.781793" style="stroke: #000000; stroke-width: 0.8"/>
      </g>
     </g>
     <g id="line2d_2">
      <defs>
       <path id="m6bd7081777" d="M 0 0 
L 0 3.5 
" style="stroke: #000000; stroke-width: 0.8"/>
      </defs>
      <g>
       <use xlink:href="#m6bd7081777" x="44.493361" y="31.974112" style="stroke: #000000; stroke-width: 0.8"/>
      </g>
     </g>
     <g id="text_1">
      <!-- $\mathdefault{0}$ -->
      <g transform="translate(42.368361 170.183981) scale(0.085 -0.085)">
       <defs>
        <path id="TimesNewRomanPSMT-30" d="M 231 2094 
Q 231 2819 450 3342 
Q 669 3866 1031 4122 
Q 1313 4325 1613 4325 
Q 2100 4325 2488 3828 
Q 2972 3213 2972 2159 
Q 2972 1422 2759 906 
Q 2547 391 2217 158 
Q 1888 -75 1581 -75 
Q 975 -75 572 641 
Q 231 1244 231 2094 
z
M 844 2016 
Q 844 1141 1059 588 
Q 1238 122 1591 122 
Q 1759 122 1940 273 
Q 2122 425 2216 781 
Q 2359 1319 2359 2297 
Q 2359 3022 2209 3506 
Q 2097 3866 1919 4016 
Q 1791 4119 1609 4119 
Q 1397 4119 1231 3928 
Q 1006 3669 925 3112 
Q 844 2556 844 2016 
z
" transform="scale(0.015625)"/>
       </defs>
       <use xlink:href="#TimesNewRomanPSMT-30" transform="translate(0 0.421875)"/>
      </g>
     </g>
    </g>
    <g id="xtick_2">
     <g id="line2d_3">
      <g>
       <use xlink:href="#m025a008b77" x="90.496104" y="160.781793" style="stroke: #000000; stroke-width: 0.8"/>
      </g>
     </g>
     <g id="line2d_4">
      <g>
       <use xlink:href="#m6bd7081777" x="90.496104" y="31.974112" style="stroke: #000000; stroke-width: 0.8"/>
      </g>
     </g>
     <g id="text_2">
      <!-- $\mathdefault{1}$ -->
      <g transform="translate(88.371104 170.183981) scale(0.085 -0.085)">
       <defs>
        <path id="TimesNewRomanPSMT-31" d="M 750 3822 
L 1781 4325 
L 1884 4325 
L 1884 747 
Q 1884 391 1914 303 
Q 1944 216 2037 169 
Q 2131 122 2419 116 
L 2419 0 
L 825 0 
L 825 116 
Q 1125 122 1212 167 
Q 1300 213 1334 289 
Q 1369 366 1369 747 
L 1369 3034 
Q 1369 3497 1338 3628 
Q 1316 3728 1258 3775 
Q 1200 3822 1119 3822 
Q 1003 3822 797 3725 
L 750 3822 
z
" transform="scale(0.015625)"/>
       </defs>
       <use xlink:href="#TimesNewRomanPSMT-31" transform="translate(0 0.421875)"/>
      </g>
     </g>
    </g>
    <g id="xtick_3">
     <g id="line2d_5">
      <g>
       <use xlink:href="#m025a008b77" x="136.498847" y="160.781793" style="stroke: #000000; stroke-width: 0.8"/>
      </g>
     </g>
     <g id="line2d_6">
      <g>
       <use xlink:href="#m6bd7081777" x="136.498847" y="31.974112" style="stroke: #000000; stroke-width: 0.8"/>
      </g>
     </g>
     <g id="text_3">
      <!-- $\mathdefault{2}$ -->
      <g transform="translate(134.373847 170.183981) scale(0.085 -0.085)">
       <defs>
        <path id="TimesNewRomanPSMT-32" d="M 2934 816 
L 2638 0 
L 138 0 
L 138 116 
Q 1241 1122 1691 1759 
Q 2141 2397 2141 2925 
Q 2141 3328 1894 3587 
Q 1647 3847 1303 3847 
Q 991 3847 742 3664 
Q 494 3481 375 3128 
L 259 3128 
Q 338 3706 661 4015 
Q 984 4325 1469 4325 
Q 1984 4325 2329 3994 
Q 2675 3663 2675 3213 
Q 2675 2891 2525 2569 
Q 2294 2063 1775 1497 
Q 997 647 803 472 
L 1909 472 
Q 2247 472 2383 497 
Q 2519 522 2628 598 
Q 2738 675 2819 816 
L 2934 816 
z
" transform="scale(0.015625)"/>
       </defs>
       <use xlink:href="#TimesNewRomanPSMT-32" transform="translate(0 0.421875)"/>
      </g>
     </g>
    </g>
    <g id="xtick_4">
     <g id="line2d_7">
      <g>
       <use xlink:href="#m025a008b77" x="182.50159" y="160.781793" style="stroke: #000000; stroke-width: 0.8"/>
      </g>
     </g>
     <g id="line2d_8">
      <g>
       <use xlink:href="#m6bd7081777" x="182.50159" y="31.974112" style="stroke: #000000; stroke-width: 0.8"/>
      </g>
     </g>
     <g id="text_4">
      <!-- $\mathdefault{3}$ -->
      <g transform="translate(180.37659 170.183981) scale(0.085 -0.085)">
       <defs>
        <path id="TimesNewRomanPSMT-33" d="M 325 3431 
Q 506 3859 782 4092 
Q 1059 4325 1472 4325 
Q 1981 4325 2253 3994 
Q 2459 3747 2459 3466 
Q 2459 3003 1878 2509 
Q 2269 2356 2469 2072 
Q 2669 1788 2669 1403 
Q 2669 853 2319 450 
Q 1863 -75 997 -75 
Q 569 -75 414 31 
Q 259 138 259 259 
Q 259 350 332 419 
Q 406 488 509 488 
Q 588 488 669 463 
Q 722 447 909 348 
Q 1097 250 1169 231 
Q 1284 197 1416 197 
Q 1734 197 1970 444 
Q 2206 691 2206 1028 
Q 2206 1275 2097 1509 
Q 2016 1684 1919 1775 
Q 1784 1900 1550 2001 
Q 1316 2103 1072 2103 
L 972 2103 
L 972 2197 
Q 1219 2228 1467 2375 
Q 1716 2522 1828 2728 
Q 1941 2934 1941 3181 
Q 1941 3503 1739 3701 
Q 1538 3900 1238 3900 
Q 753 3900 428 3381 
L 325 3431 
z
" transform="scale(0.015625)"/>
       </defs>
       <use xlink:href="#TimesNewRomanPSMT-33" transform="translate(0 0.421875)"/>
      </g>
     </g>
    </g>
    <g id="xtick_5">
     <g id="line2d_9">
      <g>
       <use xlink:href="#m025a008b77" x="228.504333" y="160.781793" style="stroke: #000000; stroke-width: 0.8"/>
      </g>
     </g>
     <g id="line2d_10">
      <g>
       <use xlink:href="#m6bd7081777" x="228.504333" y="31.974112" style="stroke: #000000; stroke-width: 0.8"/>
      </g>
     </g>
     <g id="text_5">
      <!-- $\mathdefault{4}$ -->
      <g transform="translate(226.379333 170.183981) scale(0.085 -0.085)">
       <defs>
        <path id="TimesNewRomanPSMT-34" d="M 2978 1563 
L 2978 1119 
L 2409 1119 
L 2409 0 
L 1894 0 
L 1894 1119 
L 100 1119 
L 100 1519 
L 2066 4325 
L 2409 4325 
L 2409 1563 
L 2978 1563 
z
M 1894 1563 
L 1894 3666 
L 406 1563 
L 1894 1563 
z
" transform="scale(0.015625)"/>
       </defs>
       <use xlink:href="#TimesNewRomanPSMT-34" transform="translate(0 0.421875)"/>
      </g>
     </g>
    </g>
    <g id="xtick_6">
     <g id="line2d_11">
      <defs>
       <path id="mdc72853093" d="M 0 0 
L 0 -2 
" style="stroke: #000000; stroke-width: 0.8"/>
      </defs>
      <g>
       <use xlink:href="#mdc72853093" x="67.494733" y="160.781793" style="stroke: #000000; stroke-width: 0.8"/>
      </g>
     </g>
     <g id="line2d_12">
      <defs>
       <path id="m1aa7c94fbb" d="M 0 0 
L 0 2 
" style="stroke: #000000; stroke-width: 0.8"/>
      </defs>
      <g>
       <use xlink:href="#m1aa7c94fbb" x="67.494733" y="31.974112" style="stroke: #000000; stroke-width: 0.8"/>
      </g>
     </g>
    </g>
    <g id="xtick_7">
     <g id="line2d_13">
      <g>
       <use xlink:href="#mdc72853093" x="113.497476" y="160.781793" style="stroke: #000000; stroke-width: 0.8"/>
      </g>
     </g>
     <g id="line2d_14">
      <g>
       <use xlink:href="#m1aa7c94fbb" x="113.497476" y="31.974112" style="stroke: #000000; stroke-width: 0.8"/>
      </g>
     </g>
    </g>
    <g id="xtick_8">
     <g id="line2d_15">
      <g>
       <use xlink:href="#mdc72853093" x="159.500219" y="160.781793" style="stroke: #000000; stroke-width: 0.8"/>
      </g>
     </g>
     <g id="line2d_16">
      <g>
       <use xlink:href="#m1aa7c94fbb" x="159.500219" y="31.974112" style="stroke: #000000; stroke-width: 0.8"/>
      </g>
     </g>
    </g>
    <g id="xtick_9">
     <g id="line2d_17">
      <g>
       <use xlink:href="#mdc72853093" x="205.502962" y="160.781793" style="stroke: #000000; stroke-width: 0.8"/>
      </g>
     </g>
     <g id="line2d_18">
      <g>
       <use xlink:href="#m1aa7c94fbb" x="205.502962" y="31.974112" style="stroke: #000000; stroke-width: 0.8"/>
      </g>
     </g>
    </g>
    <g id="text_6">
     <!-- 位置 $x/D$ -->
     <g transform="translate(122.998847 182.945934) scale(0.1 -0.1)">
      <defs>
       <path id="STIXGeneral-Regular-a4" d="M 3341 256 
L 3034 -64 
L 2406 563 
Q 2029 301 1606 301 
Q 1171 301 794 563 
L 179 -64 
L -141 256 
L 486 870 
Q 224 1248 224 1677 
Q 224 2118 486 2483 
L -141 3110 
L 179 3418 
L 794 2803 
Q 1184 3053 1606 3053 
Q 2048 3053 2406 2803 
L 3034 3418 
L 3341 3110 
L 2726 2483 
Q 2976 2112 2976 1683 
Q 2976 1261 2726 870 
L 3341 256 
z
M 2541 1690 
Q 2541 2086 2265 2364 
Q 1990 2643 1594 2643 
Q 1210 2643 934 2361 
Q 659 2080 659 1683 
Q 659 1280 937 995 
Q 1216 710 1606 710 
Q 2003 710 2272 995 
Q 2541 1280 2541 1690 
z
" transform="scale(0.015625)"/>
       <path id="TimesNewRomanPSMT-20" transform="scale(0.015625)"/>
       <path id="STIXGeneral-Italic-78" d="M 1555 2272 
L 1632 1907 
Q 1971 2426 2179 2624 
Q 2387 2822 2598 2822 
Q 2714 2822 2787 2755 
Q 2861 2688 2861 2585 
Q 2861 2483 2800 2419 
Q 2739 2355 2643 2355 
Q 2586 2355 2490 2409 
Q 2394 2464 2310 2464 
Q 2125 2464 1683 1690 
Q 1683 1606 1734 1402 
L 1939 544 
Q 2003 282 2131 282 
Q 2234 282 2432 538 
Q 2451 563 2476 598 
Q 2502 634 2521 662 
Q 2541 691 2566 717 
L 2662 659 
Q 2387 230 2227 80 
Q 2067 -70 1882 -70 
Q 1728 -70 1645 26 
Q 1562 122 1504 365 
L 1318 1126 
L 755 365 
Q 557 96 432 13 
Q 307 -70 147 -70 
Q 0 -70 -86 0 
Q -173 70 -173 198 
Q -173 294 -112 361 
Q -51 429 45 429 
Q 122 429 250 358 
Q 346 301 416 301 
Q 525 301 742 614 
L 1267 1357 
L 1088 2150 
Q 1024 2432 969 2509 
Q 915 2586 794 2586 
Q 717 2586 544 2541 
L 429 2509 
L 410 2611 
L 480 2637 
Q 992 2822 1229 2822 
Q 1350 2822 1420 2707 
Q 1491 2592 1555 2272 
z
" transform="scale(0.015625)"/>
       <path id="STIXGeneral-Regular-2f" d="M 1837 4326 
L 378 -90 
L -58 -90 
L 1408 4326 
L 1837 4326 
z
" transform="scale(0.015625)"/>
       <path id="STIXGeneral-Italic-44" d="M 838 4179 
L 2611 4179 
Q 3469 4179 3974 3731 
Q 4480 3283 4480 2458 
Q 4480 1325 3456 531 
Q 2778 0 1594 0 
L -51 0 
L -51 102 
Q 224 154 310 230 
Q 397 307 474 589 
L 1254 3437 
Q 1325 3686 1325 3814 
Q 1325 3949 1222 4009 
Q 1120 4070 838 4077 
L 838 4179 
z
M 1984 3738 
L 1229 1037 
Q 1088 525 1088 429 
Q 1088 192 1523 192 
Q 2470 192 3066 768 
Q 3398 1088 3584 1597 
Q 3770 2106 3770 2611 
Q 3770 3386 3270 3763 
Q 2970 3987 2432 3987 
Q 2227 3987 2128 3939 
Q 2029 3891 1984 3738 
z
" transform="scale(0.015625)"/>
      </defs>
      <use xlink:href="#STIXGeneral-Regular-a4" transform="translate(0 0.40625)"/>
      <use xlink:href="#STIXGeneral-Regular-a4" transform="translate(49.999985 0.40625)"/>
      <use xlink:href="#TimesNewRomanPSMT-20" transform="translate(99.999969 0.40625)"/>
      <use xlink:href="#STIXGeneral-Italic-78" transform="translate(124.999969 0.40625)"/>
      <use xlink:href="#STIXGeneral-Regular-2f" transform="translate(169.399963 0.40625)"/>
      <use xlink:href="#STIXGeneral-Italic-44" transform="translate(197.199951 0.40625)"/>
     </g>
    </g>
   </g>
   <g id="matplotlib.axis_2">
    <g id="ytick_1">
     <g id="line2d_19">
      <defs>
       <path id="mbef79e3b0e" d="M 0 0 
L 3.5 0 
" style="stroke: #000000; stroke-width: 0.8"/>
      </defs>
      <g>
       <use xlink:href="#mbef79e3b0e" x="35.292813" y="156.181519" style="stroke: #000000; stroke-width: 0.8"/>
      </g>
     </g>
     <g id="line2d_20">
      <defs>
       <path id="m39208ec667" d="M 0 0 
L -3.5 0 
" style="stroke: #000000; stroke-width: 0.8"/>
      </defs>
      <g>
       <use xlink:href="#m39208ec667" x="237.704882" y="156.181519" style="stroke: #000000; stroke-width: 0.8"/>
      </g>
     </g>
     <g id="text_7">
      <!-- $\mathdefault{−0.5}$ -->
      <g transform="translate(16.322813 159.132612) scale(0.085 -0.085)">
       <defs>
        <path id="TimesNewRomanPSMT-2212" d="M 3484 2000 
L 116 2000 
L 116 2256 
L 3484 2256 
L 3484 2000 
z
" transform="scale(0.015625)"/>
        <path id="TimesNewRomanPSMT-2e" d="M 800 606 
Q 947 606 1047 504 
Q 1147 403 1147 259 
Q 1147 116 1045 14 
Q 944 -88 800 -88 
Q 656 -88 554 14 
Q 453 116 453 259 
Q 453 406 554 506 
Q 656 606 800 606 
z
" transform="scale(0.015625)"/>
        <path id="TimesNewRomanPSMT-35" d="M 2778 4238 
L 2534 3706 
L 1259 3706 
L 981 3138 
Q 1809 3016 2294 2522 
Q 2709 2097 2709 1522 
Q 2709 1188 2573 903 
Q 2438 619 2231 419 
Q 2025 219 1772 97 
Q 1413 -75 1034 -75 
Q 653 -75 479 54 
Q 306 184 306 341 
Q 306 428 378 495 
Q 450 563 559 563 
Q 641 563 702 538 
Q 763 513 909 409 
Q 1144 247 1384 247 
Q 1750 247 2026 523 
Q 2303 800 2303 1197 
Q 2303 1581 2056 1914 
Q 1809 2247 1375 2428 
Q 1034 2569 447 2591 
L 1259 4238 
L 2778 4238 
z
" transform="scale(0.015625)"/>
       </defs>
       <use xlink:href="#TimesNewRomanPSMT-2212" transform="translate(0 0.421875)"/>
       <use xlink:href="#TimesNewRomanPSMT-30" transform="translate(56.396484 0.421875)"/>
       <use xlink:href="#TimesNewRomanPSMT-2e" transform="translate(106.396484 0.421875)"/>
       <use xlink:href="#TimesNewRomanPSMT-35" transform="translate(131.396484 0.421875)"/>
      </g>
     </g>
    </g>
    <g id="ytick_2">
     <g id="line2d_21">
      <g>
       <use xlink:href="#mbef79e3b0e" x="35.292813" y="133.180147" style="stroke: #000000; stroke-width: 0.8"/>
      </g>
     </g>
     <g id="line2d_22">
      <g>
       <use xlink:href="#m39208ec667" x="237.704882" y="133.180147" style="stroke: #000000; stroke-width: 0.8"/>
      </g>
     </g>
     <g id="text_8">
      <!-- $\mathdefault{0.0}$ -->
      <g transform="translate(21.167813 136.131241) scale(0.085 -0.085)">
       <use xlink:href="#TimesNewRomanPSMT-30" transform="translate(0 0.421875)"/>
       <use xlink:href="#TimesNewRomanPSMT-2e" transform="translate(50 0.421875)"/>
       <use xlink:href="#TimesNewRomanPSMT-30" transform="translate(75 0.421875)"/>
      </g>
     </g>
    </g>
    <g id="ytick_3">
     <g id="line2d_23">
      <g>
       <use xlink:href="#mbef79e3b0e" x="35.292813" y="110.178776" style="stroke: #000000; stroke-width: 0.8"/>
      </g>
     </g>
     <g id="line2d_24">
      <g>
       <use xlink:href="#m39208ec667" x="237.704882" y="110.178776" style="stroke: #000000; stroke-width: 0.8"/>
      </g>
     </g>
     <g id="text_9">
      <!-- $\mathdefault{0.5}$ -->
      <g transform="translate(21.167813 113.129869) scale(0.085 -0.085)">
       <use xlink:href="#TimesNewRomanPSMT-30" transform="translate(0 0.421875)"/>
       <use xlink:href="#TimesNewRomanPSMT-2e" transform="translate(50 0.421875)"/>
       <use xlink:href="#TimesNewRomanPSMT-35" transform="translate(75 0.421875)"/>
      </g>
     </g>
    </g>
    <g id="ytick_4">
     <g id="line2d_25">
      <g>
       <use xlink:href="#mbef79e3b0e" x="35.292813" y="87.177404" style="stroke: #000000; stroke-width: 0.8"/>
      </g>
     </g>
     <g id="line2d_26">
      <g>
       <use xlink:href="#m39208ec667" x="237.704882" y="87.177404" style="stroke: #000000; stroke-width: 0.8"/>
      </g>
     </g>
     <g id="text_10">
      <!-- $\mathdefault{1.0}$ -->
      <g transform="translate(21.167813 90.128498) scale(0.085 -0.085)">
       <use xlink:href="#TimesNewRomanPSMT-31" transform="translate(0 0.421875)"/>
       <use xlink:href="#TimesNewRomanPSMT-2e" transform="translate(50 0.421875)"/>
       <use xlink:href="#TimesNewRomanPSMT-30" transform="translate(75 0.421875)"/>
      </g>
     </g>
    </g>
    <g id="ytick_5">
     <g id="line2d_27">
      <g>
       <use xlink:href="#mbef79e3b0e" x="35.292813" y="64.176033" style="stroke: #000000; stroke-width: 0.8"/>
      </g>
     </g>
     <g id="line2d_28">
      <g>
       <use xlink:href="#m39208ec667" x="237.704882" y="64.176033" style="stroke: #000000; stroke-width: 0.8"/>
      </g>
     </g>
     <g id="text_11">
      <!-- $\mathdefault{1.5}$ -->
      <g transform="translate(21.167813 67.127126) scale(0.085 -0.085)">
       <use xlink:href="#TimesNewRomanPSMT-31" transform="translate(0 0.421875)"/>
       <use xlink:href="#TimesNewRomanPSMT-2e" transform="translate(50 0.421875)"/>
       <use xlink:href="#TimesNewRomanPSMT-35" transform="translate(75 0.421875)"/>
      </g>
     </g>
    </g>
    <g id="ytick_6">
     <g id="line2d_29">
      <g>
       <use xlink:href="#mbef79e3b0e" x="35.292813" y="41.174661" style="stroke: #000000; stroke-width: 0.8"/>
      </g>
     </g>
     <g id="line2d_30">
      <g>
       <use xlink:href="#m39208ec667" x="237.704882" y="41.174661" style="stroke: #000000; stroke-width: 0.8"/>
      </g>
     </g>
     <g id="text_12">
      <!-- $\mathdefault{2.0}$ -->
      <g transform="translate(21.167813 44.125755) scale(0.085 -0.085)">
       <use xlink:href="#TimesNewRomanPSMT-32" transform="translate(0 0.421875)"/>
       <use xlink:href="#TimesNewRomanPSMT-2e" transform="translate(50 0.421875)"/>
       <use xlink:href="#TimesNewRomanPSMT-30" transform="translate(75 0.421875)"/>
      </g>
     </g>
    </g>
    <g id="ytick_7">
     <g id="line2d_31">
      <defs>
       <path id="m6755485b1e" d="M 0 0 
L 2 0 
" style="stroke: #000000; stroke-width: 0.8"/>
      </defs>
      <g>
       <use xlink:href="#m6755485b1e" x="35.292813" y="144.680833" style="stroke: #000000; stroke-width: 0.8"/>
      </g>
     </g>
     <g id="line2d_32">
      <defs>
       <path id="mf5e04e80b2" d="M 0 0 
L -2 0 
" style="stroke: #000000; stroke-width: 0.8"/>
      </defs>
      <g>
       <use xlink:href="#mf5e04e80b2" x="237.704882" y="144.680833" style="stroke: #000000; stroke-width: 0.8"/>
      </g>
     </g>
    </g>
    <g id="ytick_8">
     <g id="line2d_33">
      <g>
       <use xlink:href="#m6755485b1e" x="35.292813" y="121.679461" style="stroke: #000000; stroke-width: 0.8"/>
      </g>
     </g>
     <g id="line2d_34">
      <g>
       <use xlink:href="#mf5e04e80b2" x="237.704882" y="121.679461" style="stroke: #000000; stroke-width: 0.8"/>
      </g>
     </g>
    </g>
    <g id="ytick_9">
     <g id="line2d_35">
      <g>
       <use xlink:href="#m6755485b1e" x="35.292813" y="98.67809" style="stroke: #000000; stroke-width: 0.8"/>
      </g>
     </g>
     <g id="line2d_36">
      <g>
       <use xlink:href="#mf5e04e80b2" x="237.704882" y="98.67809" style="stroke: #000000; stroke-width: 0.8"/>
      </g>
     </g>
    </g>
    <g id="ytick_10">
     <g id="line2d_37">
      <g>
       <use xlink:href="#m6755485b1e" x="35.292813" y="75.676718" style="stroke: #000000; stroke-width: 0.8"/>
      </g>
     </g>
     <g id="line2d_38">
      <g>
       <use xlink:href="#mf5e04e80b2" x="237.704882" y="75.676718" style="stroke: #000000; stroke-width: 0.8"/>
      </g>
     </g>
    </g>
    <g id="ytick_11">
     <g id="line2d_39">
      <g>
       <use xlink:href="#m6755485b1e" x="35.292813" y="52.675347" style="stroke: #000000; stroke-width: 0.8"/>
      </g>
     </g>
     <g id="line2d_40">
      <g>
       <use xlink:href="#mf5e04e80b2" x="237.704882" y="52.675347" style="stroke: #000000; stroke-width: 0.8"/>
      </g>
     </g>
    </g>
    <g id="text_13">
     <!-- 位置 $y/D$ -->
     <g transform="translate(10.18375 109.877953) rotate(-90) scale(0.1 -0.1)">
      <defs>
       <path id="STIXGeneral-Italic-79" d="M 1555 1190 
L 1690 486 
Q 2118 1190 2294 1558 
Q 2470 1926 2470 2131 
Q 2470 2234 2304 2336 
Q 2138 2445 2138 2586 
Q 2138 2688 2211 2755 
Q 2285 2822 2394 2822 
Q 2534 2822 2630 2720 
Q 2726 2618 2726 2470 
Q 2726 1914 1888 518 
Q 1389 -307 918 -812 
Q 448 -1318 173 -1318 
Q 26 -1318 -64 -1241 
Q -154 -1165 -154 -1043 
Q -154 -934 -80 -860 
Q -6 -787 96 -787 
Q 218 -787 314 -876 
Q 410 -966 486 -966 
Q 602 -966 794 -755 
Q 877 -672 1040 -457 
Q 1203 -243 1248 -173 
Q 1312 -45 1312 51 
Q 1312 243 1113 1046 
Q 915 1850 787 2176 
Q 698 2413 592 2499 
Q 486 2586 294 2586 
Q 192 2586 96 2560 
L 96 2669 
Q 237 2694 301 2707 
Q 563 2758 986 2822 
L 1011 2822 
Q 1082 2822 1277 2227 
Q 1472 1632 1555 1190 
z
" transform="scale(0.015625)"/>
      </defs>
      <use xlink:href="#STIXGeneral-Regular-a4" transform="translate(0 0.40625)"/>
      <use xlink:href="#STIXGeneral-Regular-a4" transform="translate(49.999985 0.40625)"/>
      <use xlink:href="#TimesNewRomanPSMT-20" transform="translate(99.999969 0.40625)"/>
      <use xlink:href="#STIXGeneral-Italic-79" transform="translate(124.999969 0.40625)"/>
      <use xlink:href="#STIXGeneral-Regular-2f" transform="translate(169.399963 0.40625)"/>
      <use xlink:href="#STIXGeneral-Italic-44" transform="translate(197.199951 0.40625)"/>
     </g>
    </g>
   </g>
   <g id="line2d_41">
    <path d="M 44.493361 133.180147 
L 44.493361 41.174661 
" clip-path="url(#p5c83d84d2b)" style="fill: none; stroke: #cccccc; stroke-width: 0.35; stroke-linecap: square"/>
   </g>
   <g id="line2d_42">
    <path d="M 59.827609 133.180147 
L 59.827609 41.174661 
" clip-path="url(#p5c83d84d2b)" style="fill: none; stroke: #cccccc; stroke-width: 0.35; stroke-linecap: square"/>
   </g>
   <g id="line2d_43">
    <path d="M 67.494733 133.180147 
L 67.494733 41.174661 
" clip-path="url(#p5c83d84d2b)" style="fill: none; stroke: #cccccc; stroke-width: 0.35; stroke-linecap: square"/>
   </g>
   <g id="line2d_44">
    <path d="M 71.328295 133.180147 
L 71.328295 41.174661 
" clip-path="url(#p5c83d84d2b)" style="fill: none; stroke: #cccccc; stroke-width: 0.35; stroke-linecap: square"/>
   </g>
   <g id="line2d_45">
    <path d="M 75.161856 133.180147 
L 75.161856 41.174661 
" clip-path="url(#p5c83d84d2b)" style="fill: none; stroke: #cccccc; stroke-width: 0.35; stroke-linecap: square"/>
   </g>
   <g id="line2d_46">
    <path d="M 78.995418 133.180147 
L 78.995418 41.174661 
" clip-path="url(#p5c83d84d2b)" style="fill: none; stroke: #cccccc; stroke-width: 0.35; stroke-linecap: square"/>
   </g>
   <g id="line2d_47">
    <path d="M 82.82898 133.180147 
L 82.82898 41.174661 
" clip-path="url(#p5c83d84d2b)" style="fill: none; stroke: #cccccc; stroke-width: 0.35; stroke-linecap: square"/>
   </g>
   <g id="line2d_48">
    <path d="M 86.662542 133.180147 
L 86.662542 41.174661 
" clip-path="url(#p5c83d84d2b)" style="fill: none; stroke: #cccccc; stroke-width: 0.35; stroke-linecap: square"/>
   </g>
   <g id="line2d_49">
    <path d="M 90.496104 133.180147 
L 90.496104 41.174661 
" clip-path="url(#p5c83d84d2b)" style="fill: none; stroke: #cccccc; stroke-width: 0.35; stroke-linecap: square"/>
   </g>
   <g id="line2d_50">
    <path d="M 94.329666 133.180147 
L 94.329666 41.174661 
" clip-path="url(#p5c83d84d2b)" style="fill: none; stroke: #cccccc; stroke-width: 0.35; stroke-linecap: square"/>
   </g>
   <g id="line2d_51">
    <path d="M 98.163228 133.180147 
L 98.163228 41.174661 
" clip-path="url(#p5c83d84d2b)" style="fill: none; stroke: #cccccc; stroke-width: 0.35; stroke-linecap: square"/>
   </g>
   <g id="line2d_52">
    <path d="M 101.99679 133.180147 
L 101.99679 41.174661 
" clip-path="url(#p5c83d84d2b)" style="fill: none; stroke: #cccccc; stroke-width: 0.35; stroke-linecap: square"/>
   </g>
   <g id="line2d_53">
    <path d="M 105.830352 133.180147 
L 105.830352 41.174661 
" clip-path="url(#p5c83d84d2b)" style="fill: none; stroke: #cccccc; stroke-width: 0.35; stroke-linecap: square"/>
   </g>
   <g id="line2d_54">
    <path d="M 109.663914 133.180147 
L 109.663914 41.174661 
" clip-path="url(#p5c83d84d2b)" style="fill: none; stroke: #cccccc; stroke-width: 0.35; stroke-linecap: square"/>
   </g>
   <g id="line2d_55">
    <path d="M 113.497476 133.180147 
L 113.497476 41.174661 
" clip-path="url(#p5c83d84d2b)" style="fill: none; stroke: #cccccc; stroke-width: 0.35; stroke-linecap: square"/>
   </g>
   <g id="line2d_56">
    <path d="M 121.1646 133.180147 
L 121.1646 41.174661 
" clip-path="url(#p5c83d84d2b)" style="fill: none; stroke: #cccccc; stroke-width: 0.35; stroke-linecap: square"/>
   </g>
   <g id="line2d_57">
    <path d="M 136.498847 133.180147 
L 136.498847 41.174661 
" clip-path="url(#p5c83d84d2b)" style="fill: none; stroke: #cccccc; stroke-width: 0.35; stroke-linecap: square"/>
   </g>
   <g id="line2d_58">
    <path d="M 151.833095 133.180147 
L 151.833095 41.174661 
" clip-path="url(#p5c83d84d2b)" style="fill: none; stroke: #cccccc; stroke-width: 0.35; stroke-linecap: square"/>
   </g>
   <g id="line2d_59">
    <path d="M 167.167343 133.180147 
L 167.167343 41.174661 
" clip-path="url(#p5c83d84d2b)" style="fill: none; stroke: #cccccc; stroke-width: 0.35; stroke-linecap: square"/>
   </g>
   <g id="line2d_60">
    <path d="M 182.50159 133.180147 
L 182.50159 41.174661 
" clip-path="url(#p5c83d84d2b)" style="fill: none; stroke: #cccccc; stroke-width: 0.35; stroke-linecap: square"/>
   </g>
   <g id="line2d_61">
    <path d="M 197.835838 133.180147 
L 197.835838 41.174661 
" clip-path="url(#p5c83d84d2b)" style="fill: none; stroke: #cccccc; stroke-width: 0.35; stroke-linecap: square"/>
   </g>
   <g id="line2d_62">
    <path d="M 213.170086 133.180147 
L 213.170086 41.174661 
" clip-path="url(#p5c83d84d2b)" style="fill: none; stroke: #cccccc; stroke-width: 0.35; stroke-linecap: square"/>
   </g>
   <g id="line2d_63">
    <path d="M 228.504333 133.180147 
L 228.504333 41.174661 
" clip-path="url(#p5c83d84d2b)" style="fill: none; stroke: #cccccc; stroke-width: 0.35; stroke-linecap: square"/>
   </g>
   <g id="line2d_64">
    <path d="M 44.493361 133.180147 
L 228.504333 133.180147 
" clip-path="url(#p5c83d84d2b)" style="fill: none; stroke: #cccccc; stroke-width: 0.35; stroke-linecap: square"/>
   </g>
   <g id="line2d_65">
    <path d="M 44.493361 125.513023 
L 228.504333 125.513023 
" clip-path="url(#p5c83d84d2b)" style="fill: none; stroke: #cccccc; stroke-width: 0.35; stroke-linecap: square"/>
   </g>
   <g id="line2d_66">
    <path d="M 44.493361 117.8459 
L 228.504333 117.8459 
" clip-path="url(#p5c83d84d2b)" style="fill: none; stroke: #cccccc; stroke-width: 0.35; stroke-linecap: square"/>
   </g>
   <g id="line2d_67">
    <path d="M 44.493361 110.178776 
L 228.504333 110.178776 
" clip-path="url(#p5c83d84d2b)" style="fill: none; stroke: #cccccc; stroke-width: 0.35; stroke-linecap: square"/>
   </g>
   <g id="line2d_68">
    <path d="M 44.493361 102.511652 
L 228.504333 102.511652 
" clip-path="url(#p5c83d84d2b)" style="fill: none; stroke: #cccccc; stroke-width: 0.35; stroke-linecap: square"/>
   </g>
   <g id="line2d_69">
    <path d="M 44.493361 94.844528 
L 228.504333 94.844528 
" clip-path="url(#p5c83d84d2b)" style="fill: none; stroke: #cccccc; stroke-width: 0.35; stroke-linecap: square"/>
   </g>
   <g id="line2d_70">
    <path d="M 44.493361 87.177404 
L 228.504333 87.177404 
" clip-path="url(#p5c83d84d2b)" style="fill: none; stroke: #cccccc; stroke-width: 0.35; stroke-linecap: square"/>
   </g>
   <g id="line2d_71">
    <path d="M 44.493361 79.51028 
L 228.504333 79.51028 
" clip-path="url(#p5c83d84d2b)" style="fill: none; stroke: #cccccc; stroke-width: 0.35; stroke-linecap: square"/>
   </g>
   <g id="line2d_72">
    <path d="M 44.493361 71.843156 
L 228.504333 71.843156 
" clip-path="url(#p5c83d84d2b)" style="fill: none; stroke: #cccccc; stroke-width: 0.35; stroke-linecap: square"/>
   </g>
   <g id="line2d_73">
    <path d="M 44.493361 64.176033 
L 228.504333 64.176033 
" clip-path="url(#p5c83d84d2b)" style="fill: none; stroke: #cccccc; stroke-width: 0.35; stroke-linecap: square"/>
   </g>
   <g id="line2d_74">
    <path d="M 44.493361 56.508909 
L 228.504333 56.508909 
" clip-path="url(#p5c83d84d2b)" style="fill: none; stroke: #cccccc; stroke-width: 0.35; stroke-linecap: square"/>
   </g>
   <g id="line2d_75">
    <path d="M 44.493361 48.841785 
L 228.504333 48.841785 
" clip-path="url(#p5c83d84d2b)" style="fill: none; stroke: #cccccc; stroke-width: 0.35; stroke-linecap: square"/>
   </g>
   <g id="line2d_76">
    <path d="M 44.493361 41.174661 
L 228.504333 41.174661 
" clip-path="url(#p5c83d84d2b)" style="fill: none; stroke: #cccccc; stroke-width: 0.35; stroke-linecap: square"/>
   </g>
   <g id="patch_4">
    <path d="M 35.292813 160.781793 
L 35.292813 31.974112 
" style="fill: none; stroke: #000000; stroke-width: 0.8; stroke-linejoin: miter; stroke-linecap: square"/>
   </g>
   <g id="patch_5">
    <path d="M 237.704882 160.781793 
L 237.704882 31.974112 
" style="fill: none; stroke: #000000; stroke-width: 0.8; stroke-linejoin: miter; stroke-linecap: square"/>
   </g>
   <g id="patch_6">
    <path d="M 35.292813 160.781793 
L 237.704882 160.781793 
" style="fill: none; stroke: #000000; stroke-width: 0.8; stroke-linejoin: miter; stroke-linecap: square"/>
   </g>
   <g id="patch_7">
    <path d="M 35.292813 31.974112 
L 237.704882 31.974112 
" style="fill: none; stroke: #000000; stroke-width: 0.8; stroke-linejoin: miter; stroke-linecap: square"/>
   </g>
   <g id="patch_8">
    <path d="M 65.313474 68.054563 
Q 67.709196 68.309535 69.215514 68.469849 
" style="fill: none; stroke: #000000; stroke-width: 0.8; stroke-linecap: round"/>
    <path d="M 66.014519 66.419573 
L 69.215514 68.469849 
L 65.654697 69.80048 
" style="fill: none; stroke: #000000; stroke-width: 0.8; stroke-linecap: round"/>
   </g>
   <g id="text_14">
    <!-- 来流 $U$ -->
    <g transform="translate(44.493361 68.776307) scale(0.085 -0.085)">
     <defs>
      <path id="STIXGeneral-Italic-55" d="M 4896 4179 
L 4896 4077 
Q 4762 4045 4694 4016 
Q 4627 3987 4563 3945 
Q 4499 3904 4451 3789 
Q 4403 3674 4358 3539 
Q 4314 3405 4230 3123 
L 3699 1299 
Q 3482 557 3078 218 
Q 2694 -115 2067 -115 
Q 1440 -115 1046 179 
Q 653 474 653 934 
Q 653 1286 934 2317 
L 1267 3526 
Q 1325 3731 1325 3814 
Q 1325 3942 1213 4006 
Q 1101 4070 813 4077 
L 813 4179 
L 2554 4179 
L 2554 4077 
Q 2227 4045 2102 3936 
Q 1978 3827 1888 3494 
L 1485 2048 
Q 1229 1146 1229 902 
Q 1229 563 1481 355 
Q 1734 147 2112 147 
Q 2650 147 2976 492 
Q 3302 838 3520 1632 
L 3930 3123 
Q 4077 3667 4077 3782 
Q 4077 3923 3981 3987 
Q 3885 4051 3629 4077 
L 3629 4179 
L 4896 4179 
z
" transform="scale(0.015625)"/>
     </defs>
     <use xlink:href="#STIXGeneral-Regular-a4" transform="translate(0 0.703125)"/>
     <use xlink:href="#STIXGeneral-Regular-a4" transform="translate(49.999985 0.703125)"/>
     <use xlink:href="#TimesNewRomanPSMT-20" transform="translate(99.999969 0.703125)"/>
     <use xlink:href="#STIXGeneral-Italic-55" transform="translate(124.999969 0.703125)"/>
    </g>
   </g>
   <g id="patch_9">
    <path d="M 225.607956 144.680833 
Q 136.499066 144.680833 47.390176 144.680833 
" style="fill: none; stroke: #000000; stroke-width: 0.8; stroke-linecap: round"/>
    <path d="M 222.207956 142.980833 
L 225.607956 144.680833 
L 222.207956 146.380833 
" style="fill: none; stroke: #000000; stroke-width: 0.8; stroke-linecap: round"/>
    <path d="M 50.790176 146.380833 
L 47.390176 144.680833 
L 50.790176 142.980833 
" style="fill: none; stroke: #000000; stroke-width: 0.8; stroke-linecap: round"/>
   </g>
   <g id="text_15">
    <!-- 长度 $L$ -->
    <g transform="translate(128.806347 153.803212) scale(0.085 -0.085)">
     <defs>
      <path id="STIXGeneral-Italic-4c" d="M 3578 1152 
L 3206 0 
L -51 0 
L -51 102 
Q 218 128 301 211 
Q 384 294 474 602 
L 1254 3405 
Q 1325 3642 1325 3802 
Q 1325 3942 1225 4000 
Q 1126 4058 832 4077 
L 832 4179 
L 2579 4179 
L 2579 4077 
Q 2285 4058 2147 3955 
Q 2010 3853 1933 3584 
L 1165 838 
Q 1101 595 1101 493 
Q 1101 346 1241 288 
Q 1382 230 1773 230 
Q 2266 230 2480 275 
Q 2694 320 2925 474 
Q 3187 646 3450 1190 
L 3578 1152 
z
" transform="scale(0.015625)"/>
     </defs>
     <use xlink:href="#STIXGeneral-Regular-a4" transform="translate(0 0.703125)"/>
     <use xlink:href="#STIXGeneral-Regular-a4" transform="translate(49.999985 0.703125)"/>
     <use xlink:href="#TimesNewRomanPSMT-20" transform="translate(99.999969 0.703125)"/>
     <use xlink:href="#STIXGeneral-Italic-4c" transform="translate(124.999969 0.703125)"/>
    </g>
   </g>
   <g id="patch_10">
    <path d="M 90.496104 98.67809 
C 93.546122 98.67809 96.471629 97.466305 98.628317 95.309617 
C 100.785005 93.152929 101.99679 90.227422 101.99679 87.177404 
C 101.99679 84.127387 100.785005 81.201879 98.628317 79.045191 
C 96.471629 76.888503 93.546122 75.676718 90.496104 75.676718 
C 87.446087 75.676718 84.520579 76.888503 82.363891 79.045191 
C 80.207203 81.201879 78.995418 84.127387 78.995418 87.177404 
C 78.995418 90.227422 80.207203 93.152929 82.363891 95.309617 
C 84.520579 97.466305 87.446087 98.67809 90.496104 98.67809 
z
" clip-path="url(#p5c83d84d2b)" style="fill: #ffffff; stroke: #000000; stroke-linejoin: miter"/>
   </g>
  </g>
 </g>
 <defs>
  <clipPath id="p5c83d84d2b">
   <rect x="35.292813" y="31.974112" width="202.412069" height="128.807681"/>
  </clipPath>
 </defs>
</svg>
